<svg version="1.1" xmlns="http://www.w3.org/2000/svg">
  <defs>
    <symbol id="image" viewBox="0 0 16 16">
      <title>image</title>
      <path d="M14.998 2c0.001 0.001 0.001 0.001 0.002 0.002v11.996c-0.001 0.001-0.001 0.001-0.002 0.002h-13.996c-0.001-0.001-0.001-0.001-0.002-0.002v-11.996c0.001-0.001 0.001-0.001 0.002-0.002h13.996zM15 1h-14c-0.55 0-1 0.45-1 1v12c0 0.55 0.45 1 1 1h14c0.55 0 1-0.45 1-1v-12c0-0.55-0.45-1-1-1v0z"></path>
      <path d="M13 4.5c0 0.828-0.672 1.5-1.5 1.5s-1.5-0.672-1.5-1.5 0.672-1.5 1.5-1.5 1.5 0.672 1.5 1.5z"></path>
      <path d="M14 13h-12v-2l3.5-6 4 5h1l3.5-3z"></path>
    </symbol>

    <symbol id="guide" viewBox="0 0 24 30" stroke="currentColor" style="stroke-linecap:round;stroke-linejoin:round;fill:none">
      <rect class="cls-1" x="4.5" y="3.5" width="14" height="17"/>
      <line class="cls-1" x1="7.5" y1="2.5" x2="7.5" y2="5.5"/>
      <line class="cls-1" x1="15.5" y1="2.5" x2="15.5" y2="5.5"/>
      <line class="cls-1" x1="11.5" y1="2.5" x2="11.5" y2="5.5"/>
    </symbol>

    <symbol id="trend" viewBox="0 0 65.33 70.67" fill="currentColor">
      <path class="cls-1" d="M48.88,27q-.16,9.43-.33,18.89c-.07,3.58.25,6.69.13,10.27A2.23,2.23,0,0,1,46,58.59c-2.22-.24-4.25.12-6.71.1-1.26.18-1.32-.83-1.21-2.18.21-5.8-.25-9.51-.15-14.25,0-1.59.18-6.22.19-6.8,0-2.54.65-2.93,1.85-4,2.11-1.94,4.23-3.88,6.43-5.72a2.25,2.25,0,0,1,1.9-.46C48.76,25.41,49,27,48.88,27Z"/>
      <path class="cls-1" d="M36,40.46c0,5.71.14,10.18,0,15.58-.08,2.55-.15,2.58-2.81,2.61-1.91,0-3.82.1-5.72.18-1.58.06-1.57-.78-1.55-2.49-.08-5.16.07-8.36,0-12.79,0-1.19-.16-2.83,0-4A10.45,10.45,0,0,1,26,37.88c.18-.75-.14-1.79,2.31.19,2.66,2.59,2.92,2.38,5.41-.2.39-.39,1.26-1.45,1.9-1.38C36.53,36.77,36.17,37.44,36,40.46Z"/>
      <path class="cls-1" d="M44.91,19.09c-.3-.59-1.68-1.13-2.16-2.07,2.81-.93,4.81-2.06,7.91-2.51,0,1.29-.09,2.16-.16,3.08,0,.63-.15,1.7-.25,2.33-.48,2.91,1.07,3-1.57,1.5a9.37,9.37,0,0,0-1.35-.83c-.42.33-1.17,1.36-1.6,1.8Q39.57,28.6,33.44,34.85c-.17.17-.32.36-.48.53-2.28,2.42-2.68,2.42-5.11,0-.85-.83-1.76-1.63-2.57-2.5a1.57,1.57,0,0,0-2.51-.12q-4.24,4-8.41,8.12c-.62.62-1.17,1.1-2.06.67a2.1,2.1,0,0,1-1-2.65,7.57,7.57,0,0,1,1.6-2.05C16,34,19.25,31.08,22.43,28.17c1.82-1.67,2.12-1.63,3.72.38a28.63,28.63,0,0,0,2.1,2.3c2,2,2.13,2,4.2,0,1.32-1.28,2.57-2.63,3.86-3.94C38.76,24.38,42.28,21.78,44.91,19.09Z"/>
      <path class="cls-1" d="M19.25,58.34c-1.26.14-2,0-3.3.1-1.64.2-2-.88-2-2.52,0-3.08.12-6.2,0-9.29S13.4,43.71,15.18,42s3.5-3.49,5.33-5.15c.71-.65,1.54-1.63,2.71-.87s.8,1.67.69,3c.13,4.54.3,9.07,0,13.61a16.05,16.05,0,0,0,.14,2.68c.28,2.17-.39,3.12-2.55,3.17-.56,0-1,.09-1.59.09C20,58.39,19.25,58.41,19.25,58.34Z"/>
    </symbol>

    <symbol id="conversation" viewBox="0 0 24 30" stroke="currentColor">
      <path d="m19.6 17.79a3.51 3.51 0 0 0 .9-2.29c0-2.21-2.24-4-5-4s-5 1.79-5 4 2.24 4 5 4a6.11 6.11 0 0 0 2.17-.41l2.83 1.41z" fill="none" stroke-linecap="round" stroke-linejoin="round"/>
      <path d="m15.5 11.5a5.5 5.5 0 0 1 3.82 1.5 5.78 5.78 0 0 0 1.18-3.5c0-3.87-4-7-9-7s-9 3.13-9 7a6 6 0 0 0 1.9 4.29l-.9 2.71 2.7-1.35a10.76 10.76 0 0 0 4.46 1.3 3.05 3.05 0 0 1 -.16-.95c0-2.21 2.24-4 5-4z" fill="none" stroke-linecap="round" stroke-linejoin="round"/>
    </symbol>

    <symbol id="people-group" viewBox="0 0 78 67.33" fill="currentColor">
      <path class="cls-1" d="M39,31a14.07,14.07,0,0,1-.89-1.78c-.48-.64-1.29-3.33-1.48-2.48.43,1.6,1.44,5.44,2,7,.61,1.8,1.38,3-.89,3-.35.13-1-.17-1.07,1.63a30.1,30.1,0,0,1-.14,3.55c-.06.48.41,2.67-.41,2.67-2.23,0-.1-7.81-1.72-7.73-.88,0,.25,7.73-1.37,7.64-1-.08-.65-2.08-.63-2.91,0-1.7-.23-2.24-.23-3.36a1.4,1.4,0,0,0-1.27-1.46c-2.08,0-.77-2.11-.45-3.32.56-2.11.76-4.17,1.24-6.3,0-.34,0-.85-.48-.06-.61,1.62-.91,2.77-1.54,4.43-.52.82-1.3.11-1.06-.75a33.37,33.37,0,0,1,1.5-4.83c.61-1.18,1.17-2.06,2.7-1.88a12.14,12.14,0,0,0,2.4-.11c1.92-.14,2.64,1.07,3.34,2.82.58,1.48,1.2,2.59,1.6,3.53S39.82,32.26,39,31Zm15.09,3.12c.23-.65.6-1.54,1.39-1.47h2.41c.93.07,1.3,1.92,2.07,4.07a9.13,9.13,0,0,1,.34,1.72c-.22.56-.72.28-.91-.35-.07.09-1.36-7.31-.84.24,0,1.28.13,2.55.07,3.82,0,.55-.06,2.49-.44,2.54-.87.1-.94-1.31-.8-2.1,0-.16.29-3.76-.43-3.87-.95,0-.48,3.82-.59,4.31a9,9,0,0,1-.19,1.54c-.21.4-.64.19-.77,0-.74-2.32-.22-4.78-.49-7.38.36-5.28-.66-.1-1.13.87-.25.52-.34.7-.78.64S52.71,38,53,37.42c.18-.43.62-1.59.75-2.09Z"/>
      <path class="cls-1" d="M18.1,22.57A3.48,3.48,0,0,1,20,25.14c.14,1.58-.07,2.68,0,4.27a23.49,23.49,0,0,1,0,3.56c-.25.32-.64,1-1.11.41a15.68,15.68,0,0,1-.34-2.72c-.06-1.51,0-3,0-4.53a9.26,9.26,0,0,0-.07-1.05c-.08-.2-.6-.45-.8.16-.11,1.12-.06,2.31-.07,3.44,0,2.71-.15,11.41-.12,12.92,0,.93-.09,2.6-.5,2.6-1.65.42-1.42-2-1.53-3.26s-.15-5.4-.09-6.73c.13-.52-1.16-1.27-1.35-.19-.23.38.11,3.31.08,3.7-.08,1.11,0,3.23,0,4.35a3.65,3.65,0,0,1-.15,1.41c-.16.38-.59.88-.9.89s-1.2-.38-1.25-.71c-.25-1.73-.15-4.57-.24-6.31-.07-1.27.1-2.56,0-3.82-.1-1.92.12-3.81,0-5.81-.09-1.21.38-2.87-.24-3s-.72,3.48-.72,5.21c-.14,2,0,2.48-.41,3.44a13.26,13.26,0,0,0-.34,1.75c-.34,1.81-.89,3.22-1.16,5a30.76,30.76,0,0,1-.89,3.65c-.14.77-1.17.78-.89-.39.73-3,1.51-6,2.27-9,.08-.31.4-.75.2-.92-.66-.55,0-5-.15-7.56C9,23.59,9.5,23,11.75,22.4A27.43,27.43,0,0,1,18.1,22.57Z"/>
      <path class="cls-1" d="M68.73,32.84c0,2.32,0,5,0,7.23.13,3.27.14,4.5-1.28,4.54-.43,0-.82-.39-.78-1.62.34-12.07-1.91-13-1.69-.12,0,.58,0,1.67-.56,1.87-1,.35-1.63-.59-1.65-1.77-.16-4.88-.27-7.31-.22-11.34,0-1,0-2.57.07-3.6.05-.83.1-2.24-.42-2.75-.58-.09-.35,2.24-.38,2.75-.05,1.34,0,2.58,0,4.44,0,.77-.63.72-.86.51s-.19-.25-.26-.64a10.9,10.9,0,0,1-.09-1.3c.06-1.59-.11-3.58,0-5.16.15-2.2.68-2.93,2.85-3.17a31.23,31.23,0,0,1,5.47,0c1.23.08,1.79.62,1.84,2,.08,2.37.15,4.74.12,7.12,0,1.12-1.37,2-1.34.5C69.7,24.32,68.78,21.55,68.73,32.84Z"/>
      <path class="cls-1" d="M25.89,44.2c0,.67-1.18.85-1.16.18,0-.09.16-3.65-.51-3.49s-.56,3.23-.51,3.49c.06.42-1.07.45-1.16.17-.26-1.06.28-3.1-.12-4.08-.21-.5-2.06.47-1.84-.06s.71-1.4.91-1.82c1.63-3.3,1.31-3.47,0-4.63-.42-.36-1-.67-1.18-1.17s0-.63.33-.64.32,0,.67.15a12.45,12.45,0,0,0,2.11,1.4,2.88,2.88,0,0,0,3.45-.88c.28-.37,1-1.13,1.43-1.13s.42-.06.42.36a12.89,12.89,0,0,1-1.5,2c-.86,1.09-1.73,1-.54,4.22.75,2,1.83,1.85-.6,2.17C25.46,40.53,26,43.32,25.89,44.2Z"/>
      <path class="cls-1" d="M68.37,19.23c0,1.45-1,2.88-2,2.88a2.49,2.49,0,0,1-2.71-2.37,2.73,2.73,0,0,1,2.6-2.87A2.09,2.09,0,0,1,68.37,19.23Z"/>
      <path class="cls-1" d="M49.15,20.62A2.33,2.33,0,0,1,46.94,23a2.66,2.66,0,0,1-2.49-2.4,3.14,3.14,0,0,1,2.28-2.72A2.68,2.68,0,0,1,49.15,20.62Z"/>
      <path class="cls-1" d="M34.13,23.16a2.16,2.16,0,0,1-2.38-2.58,1.82,1.82,0,0,1,2.09-1.73A2.58,2.58,0,0,1,36,21.56C36,22.67,35.37,23.21,34.13,23.16Z"/>
      <path class="cls-1" d="M24.19,29.68a1.76,1.76,0,1,1-.12,3.49c-1,0-1.22-.67-1.25-1.43C22.77,30.59,23.36,29.71,24.19,29.68Z"/>
      <path class="cls-1" d="M16.83,19.06c0,1.45-1,2.88-2,2.88a2.49,2.49,0,0,1-2.71-2.37,2.74,2.74,0,0,1,2.6-2.87A2.09,2.09,0,0,1,16.83,19.06Z"/>
      <path class="cls-1" d="M52.1,31a15.34,15.34,0,0,1-.88-1.77c-.49-.65-1.29-3.34-1.48-2.48.42,1.59,1.44,5.44,2,7,.6,1.79,1.37,3-.9,3-.35.13-1-.18-1.06,1.62a30.19,30.19,0,0,1-.15,3.56c-.06.47.33,2.33-.41,2.67-1.94.9-.51-7.22-1.7-7.22-.94,0,.19,7.06-1.38,7.13-1-.08-.65-2.08-.63-2.92,0-1.7-.23-2.23-.23-3.35A1.39,1.39,0,0,0,44,36.72c-2.08,0-.77-2.12-.45-3.32.56-2.12.76-4.17,1.24-6.3,0-.35,0-.86-.48-.07-.61,1.63-.91,2.78-1.54,4.44-.52.81-1.31.1-1.06-.75a31.82,31.82,0,0,1,1.5-4.83c.6-1.18,1.17-2.06,2.7-1.88a12,12,0,0,0,2.39-.11c1.93-.14,2.65,1.06,3.34,2.82.59,1.48,1.21,2.59,1.61,3.52S52.91,32.26,52.1,31Z"/>
      <path class="cls-1" d="M56.83,32a1.92,1.92,0,0,1-1.75-1.85,1.9,1.9,0,0,1,2.14-1.63c1,.1,1.17.77,1.14,1.53C58.31,31.23,57.65,32.06,56.83,32Z"/>
    </symbol>

    <symbol id="tick" viewBox="0 0 100 125" fill="currentColor">
      <path d="M78.251,19.942c-3.318,1.384-27.696,25.618-41.112,39.886c-2.991,0.824-13.965-13.679-16.594-14.396  c-2.75-0.75-9.75,8-9.25,10.75s11.75,18,26,23.726c0.725,0.291,1.396,0.246,2.017-0.049c0.188-0.03,0.372-0.072,0.546-0.138  c2.522-0.949,48.888-47.033,48.872-50.128C88.71,25.405,79.796,19.297,78.251,19.942z"/>
    </symbol>

    <symbol id="data" viewBox="0 0 24 30" style="fill:none;stroke:currentColor;stroke-linecap:round;stroke-linejoin:round;">
      <polyline class="cls-1" points="19.5 3.5 3.5 3.5 3.5 19.5"/>
      <line class="cls-1" x1="3.5" y1="9.5" x2="19.5" y2="9.5"/>
      <line class="cls-1" x1="3.5" y1="15.5" x2="19.5" y2="15.5"/>
      <line class="cls-1" x1="9.5" y1="3.5" x2="9.5" y2="19.5"/>
      <line class="cls-1" x1="15.5" y1="3.5" x2="15.5" y2="19.5"/>
    </symbol>

    <symbol id="city" viewBox="0 0 10000 12500" fill-rule="evenodd" clip-rule="evenodd" fill="currentColor">
      <path d="M5000 661c2485,0 4500,2015 4500,4500 0,224 -17,445 -49,661l-1 0c0,73 -59,132 -132,132 -73,0 -132,-59 -132,-132l-2 0 2 -15c1,-3 1,-7 2,-10 31,-208 47,-420 47,-636 0,-1170 -474,-2229 -1240,-2995 -766,-766 -1825,-1240 -2995,-1240 -1170,0 -2229,474 -2995,1240 -766,766 -1241,1825 -1241,2995 0,216 17,428 48,635 1,4 1,8 2,12l2 14 -2 0c0,73 -59,132 -132,132 -73,0 -132,-59 -132,-132l-1 0c-32,-216 -49,-437 -49,-661 0,-2485 2015,-4500 4500,-4500zm750 7152l774 0 0 132 -774 0 0 -132zm1711 -5124c37,0 66,30 66,67l0 581 366 300 25 20 0 31 0 2398 132 0 0 -1058 864 0 0 1984c-752,0 -1505,0 -2258,0l0 -474c46,-75 90,-150 132,-226l0 568c421,0 841,0 1262,0l0 -661 -661 0 0 -529 -302 0c18,-44 35,-88 51,-133l383 0 0 529 264 0 0 -2367 -324 -266 -165 136c-13,-46 -27,-91 -42,-136l141 -116 0 -581c0,-37 30,-67 66,-67zm-5642 2939l0 -2006 241 0 0 -320 274 0 0 -546 132 0 0 546 274 0 0 173c-29,89 -56,188 -74,279l-714 0 0 1874c224,32 396,225 396,458l133 0 0 -1587 148 0c4,44 8,88 13,132l-29 0c0,750 0,1500 0,2249l600 0 0 -570c42,76 87,151 132,225l0 477c-729,0 -1458,0 -2187,0l0 -926 264 0c0,-233 173,-426 397,-458zm3182 -3649c1242,0 2249,1007 2249,2250 0,1616 -1152,3015 -2249,4113 -1088,-1088 -2250,-2497 -2250,-4113 0,-1243 1007,-2250 2250,-2250zm1403 846c-359,-359 -855,-581 -1403,-581 -548,0 -1045,222 -1404,581 -359,359 -581,855 -581,1404 0,754 274,1465 676,2116 364,589 836,1133 1309,1620 477,-490 949,-1036 1312,-1624 401,-650 673,-1358 673,-2112 0,-549 -222,-1045 -582,-1404zm1525 5583l-545 0 0 545 545 -545zm-677 666l0 -732c0,-37 29,-66 66,-66l611 0 -330 -331 -811 0 0 -132 678 0 -369 -369c-52,-52 -52,-136 0,-187 51,-52 135,-52 187,0l992 992c51,51 51,135 0,186l-865 865c-26,26 -60,39 -93,39l0 0 -6362 0c-73,0 -133,-59 -133,-132 0,-41 18,-77 47,-101l1845 -1849c52,-51 135,-52 187,0 51,51 52,135 0,186l-369 370 680 0 0 132 -812 0 -1127 1129 5978 0zm-4771 -2855l0 661 -1191 0 0 -661c397,0 794,0 1191,0zm-265 -133c0,-91 -37,-174 -97,-233 -59,-60 -142,-97 -234,-97 -91,0 -174,37 -234,96 -59,60 -96,143 -96,234l661 0zm5437 397l-132 0 0 133 132 0 0 -133zm265 0l-133 0 0 133 133 0 0 -133zm-763 -132l-133 0 0 132 133 0 0 -132zm0 -265l-133 0 0 133 133 0 0 -133zm0 -264l-133 0 0 132 133 0 0 -132zm1261 0l132 0 0 132 -132 0 0 -132zm0 264l132 0 0 133 -132 0 0 -133zm0 -793l132 0 0 132 -132 0 0 -132zm0 1058l132 0 0 132 -132 0 0 -132zm0 -794l132 0 0 133 -132 0 0 -133zm-234 1323l600 0 0 -1720 -600 0c0,574 0,1147 0,1720zm-6495 -397l132 0 0 133 -132 0 0 -133zm265 0l132 0 0 133 -132 0 0 -133zm1526 1330l773 0 0 132 -773 0 0 -132zm-631 -1991l132 0 0 132 -132 0 0 -132zm0 264l132 0 0 133 -132 0 0 -133zm0 265l132 0 0 132 -132 0 0 -132zm-655 -2729l416 0 0 -188 -416 0 0 188zm2808 -256c496,0 897,401 897,897 0,496 -401,898 -897,898 -496,0 -898,-402 -898,-898 0,-496 402,-897 898,-897zm0 264c-350,0 -633,283 -633,633 0,350 283,633 633,633 350,0 633,-283 633,-633 0,-350 -283,-633 -633,-633z"/>
    </symbol>

    <symbol id="newsletter" viewBox="0 0 24 30" stroke-linecap="round" stroke-linejoin="round" fill="none" stroke="currentColor">
      <path class="cls-1" d="M6.5,6.5h11a3,3,0,0,1,3,3v6a0,0,0,0,1,0,0H3.5a0,0,0,0,1,0,0v-6A3,3,0,0,1,6.5,6.5Z"/>
      <polyline class="cls-1" points="17.5 2.5 12.5 2.5 12.5 9.5"/>
      <line class="cls-1" x1="13.5" y1="20.5" x2="13.5" y2="15.5"/>
      <line class="cls-1" x1="11.5" y1="20.5" x2="11.5" y2="15.5"/>
      <line class="cls-1" x1="17.5" y1="4.5" x2="17.5" y2="2.5"/>
      <line class="cls-1" x1="12.5" y1="4.5" x2="17.5" y2="4.5"/>
      <path class="cls-1" d="M6.5,6.5h0a3,3,0,0,1,3,3v6a0,0,0,0,1,0,0h-6a0,0,0,0,1,0,0v-6A3,3,0,0,1,6.5,6.5Z"/>
      <line class="cls-1" x1="5.5" y1="10.5" x2="7.5" y2="10.5"/>
    </symbol>

    <symbol id="brick" viewBox="0 0 24 30" fill="none" stroke="currentColor" style="stroke-linecap:round;stroke-linejoin:round;">
      <rect class="cls-1" x="2.5" y="7.5" width="18" height="11"/>
      <path class="cls-1" d="M6,4.5H9a.5.5,0,0,1,.5.5V7.5a0,0,0,0,1,0,0h-4a0,0,0,0,1,0,0V5A.5.5,0,0,1,6,4.5Z"/>
      <path class="cls-1" d="M14,4.5h3a.5.5,0,0,1,.5.5V7.5a0,0,0,0,1,0,0h-4a0,0,0,0,1,0,0V5A.5.5,0,0,1,14,4.5Z"/>
    </symbol>
  </defs>
</svg>
