<svg version="1.1" xmlns="http://www.w3.org/2000/svg">
  <defs>
    <symbol id="image" viewBox="0 0 16 16">
      <title>image</title>
      <path d="M14.998 2c0.001 0.001 0.001 0.001 0.002 0.002v11.996c-0.001 0.001-0.001 0.001-0.002 0.002h-13.996c-0.001-0.001-0.001-0.001-0.002-0.002v-11.996c0.001-0.001 0.001-0.001 0.002-0.002h13.996zM15 1h-14c-0.55 0-1 0.45-1 1v12c0 0.55 0.45 1 1 1h14c0.55 0 1-0.45 1-1v-12c0-0.55-0.45-1-1-1v0z"></path>
      <path d="M13 4.5c0 0.828-0.672 1.5-1.5 1.5s-1.5-0.672-1.5-1.5 0.672-1.5 1.5-1.5 1.5 0.672 1.5 1.5z"></path>
      <path d="M14 13h-12v-2l3.5-6 4 5h1l3.5-3z"></path>
    </symbol>

    <symbol id="guide" viewBox="0 0 86 70.67" fill="currentColor">
      <path class="cls-1" d="M41.4,37.61c-.21,4.28,0,8.42-.27,12.55-.12,2-.85,2.57-2.78,2-3.34-1-7-2.14-10.32-3.26-1.59-.54-2.46-1.1-2.53-2.87-.11-3.1,0-20.32-.17-22.85-.07-.89-.09-1.79.81-2.35a2.38,2.38,0,0,1,2.71.09q5.53,3.52,11,7.11a3.51,3.51,0,0,1,1.53,3.3C41.36,33.45,41.4,35.6,41.4,37.61Z"/>
      <path class="cls-1" d="M58.29,24.43q.14,9.3.24,18.6a25.68,25.68,0,0,1-.28,2.61c-.15,1.67-1,2.4-2.68,2.84-2.3.61-4.44,1.79-6.71,2.5a27,27,0,0,1-5.11,1.37c-1.14.12-1.47-.83-1.46-1.77,0-1.2.15-2.8.2-4,.19-4.7.25-14.76.2-15.08-.06-2.87-.09-2.66,2.32-4.06q5.07-2.93,10.1-5.93c1.89-1.14,3-1.1,3.15,1,.14.54-.06,1.38,0,1.93Z"/>
      <path class="cls-1" d="M24.72,20.78c.11,2.16.09,6.32.11,8.47,0,6,.06,12,.13,18,0,2.23.37,2.73,2.34,3.29,4.3,1.22,8.62,2.35,12.91,3.61a7,7,0,0,0,4.44-.32c3-1,6-2.13,9-3.19.61-.21,1.23-.37,1.84-.57C59,48.9,59.1,48.9,59.13,45.3c0-5.9-.08-11.81-.13-17.71,0-1.76,0-3.52,0-5.28a3.19,3.19,0,0,1,.38-1.59,1.58,1.58,0,0,1,1.16-.58c.25,0,.66.46.73.78a9,9,0,0,1,.21,2.13q-.1,12-.23,24c0,2.29-.59,3.15-2.69,3.85C55.37,51.92,52.17,52.92,49,54a14.35,14.35,0,0,0-3.3,1.37A6.29,6.29,0,0,1,40,56c-4.35-1.3-8.75-2.44-13.13-3.65-.23-.07-.45-.16-.69-.21-2.89-.61-3-.67-3-3.45-.07-8.55-.13-19.09-.2-27.64C23,20.23,24.68,19.94,24.72,20.78Z"/>
      <path class="cls-1" d="M66.57,54.26c-.11-1.19-.14-1.95-.26-2.71-.16-1-.24-1.24-.43-2.24a9.85,9.85,0,0,1-.47-1.87c0-3.26.12-7.52.18-10.78,0-2.79.13-5.58.12-8.37,0-1.27-.22-2.54-.31-3.81s.6-1.41,1.9-1.37c1.18-.12,1.81-.07,1.86,1.07.12,2.54.16,5.09.15,7.64,0,4.14-.11,8.29-.16,12.44a32.57,32.57,0,0,1-.05,4.31c-.78,1.72-.79,3.37-1.27,5C67.77,53.8,67.36,56.35,66.57,54.26Z"/>
      <path class="cls-1" d="M67,22.45c-1.76-.07-1.65-.13-1.66-1.38,0-1.44.43-3.4,1.94-3.28,1.32.1,2.11,2.17,2,3.72C69.25,22.75,68.63,22.51,67,22.45Z"/>
    </symbol>

    <symbol id="trend" viewBox="0 0 65.33 70.67" fill="currentColor">
      <path class="cls-1" d="M48.88,27q-.16,9.43-.33,18.89c-.07,3.58.25,6.69.13,10.27A2.23,2.23,0,0,1,46,58.59c-2.22-.24-4.25.12-6.71.1-1.26.18-1.32-.83-1.21-2.18.21-5.8-.25-9.51-.15-14.25,0-1.59.18-6.22.19-6.8,0-2.54.65-2.93,1.85-4,2.11-1.94,4.23-3.88,6.43-5.72a2.25,2.25,0,0,1,1.9-.46C48.76,25.41,49,27,48.88,27Z"/>
      <path class="cls-1" d="M36,40.46c0,5.71.14,10.18,0,15.58-.08,2.55-.15,2.58-2.81,2.61-1.91,0-3.82.1-5.72.18-1.58.06-1.57-.78-1.55-2.49-.08-5.16.07-8.36,0-12.79,0-1.19-.16-2.83,0-4A10.45,10.45,0,0,1,26,37.88c.18-.75-.14-1.79,2.31.19,2.66,2.59,2.92,2.38,5.41-.2.39-.39,1.26-1.45,1.9-1.38C36.53,36.77,36.17,37.44,36,40.46Z"/>
      <path class="cls-1" d="M44.91,19.09c-.3-.59-1.68-1.13-2.16-2.07,2.81-.93,4.81-2.06,7.91-2.51,0,1.29-.09,2.16-.16,3.08,0,.63-.15,1.7-.25,2.33-.48,2.91,1.07,3-1.57,1.5a9.37,9.37,0,0,0-1.35-.83c-.42.33-1.17,1.36-1.6,1.8Q39.57,28.6,33.44,34.85c-.17.17-.32.36-.48.53-2.28,2.42-2.68,2.42-5.11,0-.85-.83-1.76-1.63-2.57-2.5a1.57,1.57,0,0,0-2.51-.12q-4.24,4-8.41,8.12c-.62.62-1.17,1.1-2.06.67a2.1,2.1,0,0,1-1-2.65,7.57,7.57,0,0,1,1.6-2.05C16,34,19.25,31.08,22.43,28.17c1.82-1.67,2.12-1.63,3.72.38a28.63,28.63,0,0,0,2.1,2.3c2,2,2.13,2,4.2,0,1.32-1.28,2.57-2.63,3.86-3.94C38.76,24.38,42.28,21.78,44.91,19.09Z"/>
      <path class="cls-1" d="M19.25,58.34c-1.26.14-2,0-3.3.1-1.64.2-2-.88-2-2.52,0-3.08.12-6.2,0-9.29S13.4,43.71,15.18,42s3.5-3.49,5.33-5.15c.71-.65,1.54-1.63,2.71-.87s.8,1.67.69,3c.13,4.54.3,9.07,0,13.61a16.05,16.05,0,0,0,.14,2.68c.28,2.17-.39,3.12-2.55,3.17-.56,0-1,.09-1.59.09C20,58.39,19.25,58.41,19.25,58.34Z"/>
    </symbol>

    <symbol id="people-exchange" viewBox="0 0 92.67 69.33" fill="currentColor">
      <path class="cls-1" d="M66.5,20.76c-3-.57-9.74,1.69-10.31.55,0,0,.34-1.74,1.25-1.12s4.61-.86,5.15-.91c1.51-.07.67-.32.12-.85a28.32,28.32,0,0,0-3.78-3.15,28.64,28.64,0,0,0-7.33-4v0h0l-.34-.1a12.16,12.16,0,0,0-1.81-.4h0a11.7,11.7,0,0,0-5,.05c-3.24.71-6.15,2.62-9.05,4.64a31.1,31.1,0,0,0-3.89,3.26c-.57.56-1.43.83.13.86.54,0,4.53,1.29,5.32.76,1-.64,1.31,1.11,1.31,1.11-.58,1.14-7.58-.94-10.66-.28.51-4.5,1.94-6.42,2.44-10.72a.68.68,0,0,1,1,.47c.25,1.8-1.76,6-1.28,7.48,2.81-1.49,7.45-5.33,10.17-6.59s5.48-2.6,8.53-2a17.31,17.31,0,0,1,6.13,1.93c2.63,1.19,7.14,4.9,9.87,6.29.47-1.44-1.53-5.62-1.29-7.41.08-.6.81-.7,1-.5C64.57,14.43,66,16.29,66.5,20.76Z"/>
      <polygon class="cls-1" points="37.71 17.32 37.71 17.34 37.7 17.32 37.71 17.32"/>
      <polygon class="cls-1" points="37.71 17.32 37.71 17.34 37.7 17.32 37.71 17.32"/>
      <path class="cls-1" d="M36.94,53.62c-1.09-5.71-1.09-5.71-4.49-8.86,0,1.92.08,1.89,0,3.41s.38,4.26.18,5.62c-3.27.06-11.47,1.63-14.56.11-.65-2.6.3-6.68-.47-9.23-2.72,2.9-2.61,4.23-3.95,8.95-.18.69-.62.14-3.68.22.63-3.9.68-4.6,2.25-7.81a17.33,17.33,0,0,1,10.92-7.3c.55-2.14.55-2.14-2-3.56-2.9-2-3.21-6.66-1.49-8.81,1.22-1.53,1.89-2.81,3.8-3.22,2.56-.53,3.58-.39,5.36.85a16.1,16.1,0,0,0,1,1.33c2.52,3.17,2.38,6.25-.42,9.47-1.06.89-1.59,1.28-1.6,4C34.93,41.06,40,45.8,40,53,40,55,39.47,53.44,36.94,53.62Z"/>
      <path class="cls-1" d="M77.64,53.62c-1.09-5.71-1.09-5.71-4.49-8.86a33.91,33.91,0,0,1,0,3.41c-.09,1.41.39,4.26.18,5.62-3.26.06-11.46,1.63-14.55.11-.65-2.6.3-6.68-.47-9.23-2.72,2.9-2.61,4.23-4,8.95-.18.69-.62.14-3.68.22.63-3.9.68-4.6,2.24-7.81a17.38,17.38,0,0,1,10.93-7.3c.54-2.14.54-2.14-2-3.56-2.91-2-3.21-6.66-1.49-8.81,1.22-1.53,1.88-2.81,3.8-3.22,2.56-.53,3.57-.39,5.35.85a16.25,16.25,0,0,0,1.06,1.33c2.52,3.17,2.38,6.25-.42,9.47-1.06.89-1.59,1.28-1.6,4,7.12,2.3,12.23,7,12.19,14.23C80.69,55,80.17,53.44,77.64,53.62Z"/>
    </symbol>

    <symbol id="people-group" viewBox="0 0 78 67.33" fill="currentColor">
      <path class="cls-1" d="M39,31a14.07,14.07,0,0,1-.89-1.78c-.48-.64-1.29-3.33-1.48-2.48.43,1.6,1.44,5.44,2,7,.61,1.8,1.38,3-.89,3-.35.13-1-.17-1.07,1.63a30.1,30.1,0,0,1-.14,3.55c-.06.48.41,2.67-.41,2.67-2.23,0-.1-7.81-1.72-7.73-.88,0,.25,7.73-1.37,7.64-1-.08-.65-2.08-.63-2.91,0-1.7-.23-2.24-.23-3.36a1.4,1.4,0,0,0-1.27-1.46c-2.08,0-.77-2.11-.45-3.32.56-2.11.76-4.17,1.24-6.3,0-.34,0-.85-.48-.06-.61,1.62-.91,2.77-1.54,4.43-.52.82-1.3.11-1.06-.75a33.37,33.37,0,0,1,1.5-4.83c.61-1.18,1.17-2.06,2.7-1.88a12.14,12.14,0,0,0,2.4-.11c1.92-.14,2.64,1.07,3.34,2.82.58,1.48,1.2,2.59,1.6,3.53S39.82,32.26,39,31Zm15.09,3.12c.23-.65.6-1.54,1.39-1.47h2.41c.93.07,1.3,1.92,2.07,4.07a9.13,9.13,0,0,1,.34,1.72c-.22.56-.72.28-.91-.35-.07.09-1.36-7.31-.84.24,0,1.28.13,2.55.07,3.82,0,.55-.06,2.49-.44,2.54-.87.1-.94-1.31-.8-2.1,0-.16.29-3.76-.43-3.87-.95,0-.48,3.82-.59,4.31a9,9,0,0,1-.19,1.54c-.21.4-.64.19-.77,0-.74-2.32-.22-4.78-.49-7.38.36-5.28-.66-.1-1.13.87-.25.52-.34.7-.78.64S52.71,38,53,37.42c.18-.43.62-1.59.75-2.09Z"/>
      <path class="cls-1" d="M18.1,22.57A3.48,3.48,0,0,1,20,25.14c.14,1.58-.07,2.68,0,4.27a23.49,23.49,0,0,1,0,3.56c-.25.32-.64,1-1.11.41a15.68,15.68,0,0,1-.34-2.72c-.06-1.51,0-3,0-4.53a9.26,9.26,0,0,0-.07-1.05c-.08-.2-.6-.45-.8.16-.11,1.12-.06,2.31-.07,3.44,0,2.71-.15,11.41-.12,12.92,0,.93-.09,2.6-.5,2.6-1.65.42-1.42-2-1.53-3.26s-.15-5.4-.09-6.73c.13-.52-1.16-1.27-1.35-.19-.23.38.11,3.31.08,3.7-.08,1.11,0,3.23,0,4.35a3.65,3.65,0,0,1-.15,1.41c-.16.38-.59.88-.9.89s-1.2-.38-1.25-.71c-.25-1.73-.15-4.57-.24-6.31-.07-1.27.1-2.56,0-3.82-.1-1.92.12-3.81,0-5.81-.09-1.21.38-2.87-.24-3s-.72,3.48-.72,5.21c-.14,2,0,2.48-.41,3.44a13.26,13.26,0,0,0-.34,1.75c-.34,1.81-.89,3.22-1.16,5a30.76,30.76,0,0,1-.89,3.65c-.14.77-1.17.78-.89-.39.73-3,1.51-6,2.27-9,.08-.31.4-.75.2-.92-.66-.55,0-5-.15-7.56C9,23.59,9.5,23,11.75,22.4A27.43,27.43,0,0,1,18.1,22.57Z"/>
      <path class="cls-1" d="M68.73,32.84c0,2.32,0,5,0,7.23.13,3.27.14,4.5-1.28,4.54-.43,0-.82-.39-.78-1.62.34-12.07-1.91-13-1.69-.12,0,.58,0,1.67-.56,1.87-1,.35-1.63-.59-1.65-1.77-.16-4.88-.27-7.31-.22-11.34,0-1,0-2.57.07-3.6.05-.83.1-2.24-.42-2.75-.58-.09-.35,2.24-.38,2.75-.05,1.34,0,2.58,0,4.44,0,.77-.63.72-.86.51s-.19-.25-.26-.64a10.9,10.9,0,0,1-.09-1.3c.06-1.59-.11-3.58,0-5.16.15-2.2.68-2.93,2.85-3.17a31.23,31.23,0,0,1,5.47,0c1.23.08,1.79.62,1.84,2,.08,2.37.15,4.74.12,7.12,0,1.12-1.37,2-1.34.5C69.7,24.32,68.78,21.55,68.73,32.84Z"/>
      <path class="cls-1" d="M25.89,44.2c0,.67-1.18.85-1.16.18,0-.09.16-3.65-.51-3.49s-.56,3.23-.51,3.49c.06.42-1.07.45-1.16.17-.26-1.06.28-3.1-.12-4.08-.21-.5-2.06.47-1.84-.06s.71-1.4.91-1.82c1.63-3.3,1.31-3.47,0-4.63-.42-.36-1-.67-1.18-1.17s0-.63.33-.64.32,0,.67.15a12.45,12.45,0,0,0,2.11,1.4,2.88,2.88,0,0,0,3.45-.88c.28-.37,1-1.13,1.43-1.13s.42-.06.42.36a12.89,12.89,0,0,1-1.5,2c-.86,1.09-1.73,1-.54,4.22.75,2,1.83,1.85-.6,2.17C25.46,40.53,26,43.32,25.89,44.2Z"/>
      <path class="cls-1" d="M68.37,19.23c0,1.45-1,2.88-2,2.88a2.49,2.49,0,0,1-2.71-2.37,2.73,2.73,0,0,1,2.6-2.87A2.09,2.09,0,0,1,68.37,19.23Z"/>
      <path class="cls-1" d="M49.15,20.62A2.33,2.33,0,0,1,46.94,23a2.66,2.66,0,0,1-2.49-2.4,3.14,3.14,0,0,1,2.28-2.72A2.68,2.68,0,0,1,49.15,20.62Z"/>
      <path class="cls-1" d="M34.13,23.16a2.16,2.16,0,0,1-2.38-2.58,1.82,1.82,0,0,1,2.09-1.73A2.58,2.58,0,0,1,36,21.56C36,22.67,35.37,23.21,34.13,23.16Z"/>
      <path class="cls-1" d="M24.19,29.68a1.76,1.76,0,1,1-.12,3.49c-1,0-1.22-.67-1.25-1.43C22.77,30.59,23.36,29.71,24.19,29.68Z"/>
      <path class="cls-1" d="M16.83,19.06c0,1.45-1,2.88-2,2.88a2.49,2.49,0,0,1-2.71-2.37,2.74,2.74,0,0,1,2.6-2.87A2.09,2.09,0,0,1,16.83,19.06Z"/>
      <path class="cls-1" d="M52.1,31a15.34,15.34,0,0,1-.88-1.77c-.49-.65-1.29-3.34-1.48-2.48.42,1.59,1.44,5.44,2,7,.6,1.79,1.37,3-.9,3-.35.13-1-.18-1.06,1.62a30.19,30.19,0,0,1-.15,3.56c-.06.47.33,2.33-.41,2.67-1.94.9-.51-7.22-1.7-7.22-.94,0,.19,7.06-1.38,7.13-1-.08-.65-2.08-.63-2.92,0-1.7-.23-2.23-.23-3.35A1.39,1.39,0,0,0,44,36.72c-2.08,0-.77-2.12-.45-3.32.56-2.12.76-4.17,1.24-6.3,0-.35,0-.86-.48-.07-.61,1.63-.91,2.78-1.54,4.44-.52.81-1.31.1-1.06-.75a31.82,31.82,0,0,1,1.5-4.83c.6-1.18,1.17-2.06,2.7-1.88a12,12,0,0,0,2.39-.11c1.93-.14,2.65,1.06,3.34,2.82.59,1.48,1.21,2.59,1.61,3.52S52.91,32.26,52.1,31Z"/>
      <path class="cls-1" d="M56.83,32a1.92,1.92,0,0,1-1.75-1.85,1.9,1.9,0,0,1,2.14-1.63c1,.1,1.17.77,1.14,1.53C58.31,31.23,57.65,32.06,56.83,32Z"/>
    </symbol>

    <symbol id="tick" viewBox="0 0 100 125" fill="currentColor">
      <path d="M78.251,19.942c-3.318,1.384-27.696,25.618-41.112,39.886c-2.991,0.824-13.965-13.679-16.594-14.396  c-2.75-0.75-9.75,8-9.25,10.75s11.75,18,26,23.726c0.725,0.291,1.396,0.246,2.017-0.049c0.188-0.03,0.372-0.072,0.546-0.138  c2.522-0.949,48.888-47.033,48.872-50.128C88.71,25.405,79.796,19.297,78.251,19.942z"/>
    </symbol>
  </defs>
</svg>
